<svg width="600" height="200" viewBox="0 0 600 200" fill="none" xmlns="http://www.w3.org/2000/svg">
  <g opacity="0.1">
    <path d="M181.435 268.487H0L0 225.099L103.868 128.681H2.67472L2.67472 86.0346H179.652V127.198L72.6631 225.47H181.435V268.487Z" fill="#AC94FA"/>
    <path d="M429.045 86.0346L341.225 162.798L430.828 268.487H358.165L300.212 198.77L275.694 220.278V268.487H216.405V0L275.694 0V153.898L351.478 86.0346H429.045Z" fill="#AC94FA"/>
    <path
      d="M686.917 68.2343L631.639 82.3262C629.559 72.9316 623.912 64.4023 614.699 56.7383C605.486 49.0743 591.964 45.2423 574.133 45.2423C559.57 45.2423 547.683 48.5799 538.47 55.255C529.257 61.6828 524.65 69.4704 524.65 78.6178C524.65 94.6875 536.092 104.577 558.976 108.285L603.109 115.331C631.045 119.781 652.74 129.052 668.193 143.144C683.647 157.236 691.374 173.8 691.374 192.836C691.374 214.592 680.973 233.628 660.169 249.945C639.663 266.015 612.024 274.05 577.253 274.05C557.341 274.05 539.361 271.577 523.313 266.633C507.265 261.688 494.337 255.137 484.53 246.979C474.722 238.573 466.995 229.796 461.349 220.649C455.999 211.254 452.73 201.613 451.541 191.724L508.602 179.115C510.088 193.207 516.626 204.95 528.217 214.345C540.104 223.739 556.598 228.437 577.699 228.437C593.747 228.437 606.229 225.47 615.145 219.536C624.358 213.603 628.964 205.815 628.964 196.174C628.964 188.51 625.547 181.958 618.711 176.519C612.173 170.833 602.812 167.001 590.627 165.023L546.494 157.606C520.935 153.156 500.727 144.38 485.867 131.277C471.007 118.174 463.578 101.857 463.578 82.3262C463.578 59.087 474.277 39.5561 495.674 23.7337C517.369 7.91123 543.373 0 573.687 0C591.815 0 608.012 2.10142 622.277 6.30426C636.543 10.5071 647.984 16.1933 656.603 23.3628C665.222 30.2852 671.908 37.4547 676.663 44.8715C681.418 52.2883 684.836 60.0759 686.917 68.2343Z"
      fill="#AC94FA"/>
    <path d="M791.255 340.43H728.399L780.11 245.495L686.941 86.0346H753.363L811.761 192.836L865.701 86.0346H929.003L791.255 340.43Z" fill="#AC94FA"/>
    <path
      d="M1010.84 163.54V268.487H951.546V86.0346H1009.05V108.656C1015.29 99.7556 1024.21 92.9569 1035.8 88.2596C1047.39 83.5623 1059.58 81.2137 1072.35 81.2137C1098.21 81.2137 1117.82 88.0124 1131.2 101.61C1144.87 114.96 1151.7 132.266 1151.7 153.527V268.487H1092.41V162.057C1092.41 151.179 1089 142.402 1082.16 135.727C1075.62 129.052 1065.52 125.714 1051.85 125.714C1039.37 125.714 1029.41 129.299 1021.98 136.469C1014.55 143.638 1010.84 152.662 1010.84 163.54Z"
      fill="#AC94FA"/>
    <path
      d="M1297.02 126.085C1281.27 126.085 1268.05 130.659 1257.35 139.806C1246.65 148.954 1241.3 161.438 1241.3 177.261C1241.3 193.083 1246.65 205.692 1257.35 215.086C1268.34 224.234 1281.72 228.807 1297.47 228.807C1311.44 228.807 1322.58 225.841 1330.9 219.907C1339.22 213.727 1344.87 206.434 1347.84 198.028L1400 212.491C1394.65 229.302 1383.06 243.765 1365.23 255.879C1347.4 267.993 1324.81 274.05 1297.47 274.05C1264.78 274.05 1237.29 264.902 1215 246.608C1193.01 228.066 1182.01 204.95 1182.01 177.261C1182.01 149.324 1192.86 126.209 1214.55 107.914C1236.55 89.6193 1263.59 80.472 1295.69 80.472C1323.62 80.472 1346.51 86.529 1364.34 98.6431C1382.17 110.51 1393.61 124.973 1398.66 142.031L1345.61 156.865C1338.48 136.345 1322.28 126.085 1297.02 126.085Z"
      fill="#AC94FA"/>
  </g>
</svg>
